<svg id="a0bdda96-51f3-44cc-a6fa-04c54674d4e3" data-name="Layer 1" xmlns="http://www.w3.org/2000/svg" viewBox="0 0 442.9 42.4"><title>ceed</title><path d="M10.28,30H37.86c1.29,0,1.74-.78,1.74-1.15V26.79a2.08,2.08,0,0,0-1.74-1.25H12.28c-4.67,0-5.65-1.84-5.65-2.45V13.45c0-1.35,2.67-2.1,4.13-2.1H37.86a1.79,1.79,0,0,0,1.76-1.42V8c0-1-1.76-1.25-1.76-1.25H12.09C.22,6.76,0,12.89,0,12.89V23.66C0,29.31,9.18,30,10.28,30Z" style="fill:#fff;fill-rule:evenodd"/><path d="M53.27,30h12.5a1.42,1.42,0,0,0,1.4-1.22V26.92c0-.54-.91-1.37-1.79-1.37H56.33c-8.56,0-8-4.4-8-4.4H78.6c1.49,0,1.76-1,1.76-1.9V12.67c0-4-7.1-5.92-11.06-5.92H54.74c-9.93,0-12.95,4.81-12.95,6.53v9C41.8,26.28,46.25,30,53.27,30Zm-4.94-16.1c0-.84,2.57-2.52,6.43-2.52H67.17c5.53,0,6.85,2.13,6.85,2.23v2.81H48.33Z" style="fill:#fff;fill-rule:evenodd"/><path d="M108.18,28.75V26.92c0-.54-.9-1.37-1.79-1.37H97.34c-8.56,0-8-4.4-8-4.4h30.27c1.49,0,1.76-1,1.76-1.9V12.67c0-4-7.1-5.92-11.06-5.92H95.75c-9.94,0-12.95,4.81-12.95,6.53v9c0,4,4.46,7.66,11.48,7.66h12.5A1.42,1.42,0,0,0,108.18,28.75ZM89.34,13.87c0-.84,2.57-2.52,6.44-2.52h12.41c5.53,0,6.85,2.13,6.85,2.23v2.81H89.34Z" style="fill:#fff;fill-rule:evenodd"/><path d="M127.53,24.07c0,.82.33,1.73,1.76,3.17,2,1.86,7.21,2.74,9.69,2.74h15.7c5.48,0,11.64-3.26,11.64-6.52V1.36c0-.66-1.17-1.34-1.73-1.34h-2.8c-1.41,0-2.16.82-2.16,1.27V7H139.57c-10.57,0-12.11,5.61-12.11,7.24C127.47,15.16,127.53,23.26,127.53,24.07Zm6.59-10s0-1.17,2.05-1.86a16.83,16.83,0,0,1,4.89-.78h18.6V22.93c0,.62-.59,1.5-2.06,1.93a18.81,18.81,0,0,1-4.83.68h-14.2a7.23,7.23,0,0,1-3.85-1.31,1.52,1.52,0,0,1-.62-1.2Z" style="fill:#fff;fill-rule:evenodd"/><path id="755a77f8-8770-4af2-ac5e-9626dde9dbf1" data-name="GT" d="M229.27,14.89h82.09c-1,2.43-6.91,14.7-6.91,14.7h28.69c5,0,9.12-.58,11.64-4.71a79.66,79.66,0,0,0,5.39-10h50.91c4.36,0,8.7-6.11,9-6.58H204.55c-18.4,0-23.81,22.11-3.31,22.11h49.59s-5.34,12-5.34,12h7.29c4.47,0,6.94-.93,15.46-4.59,14.88-6.41,22.81-9.7,27-11.4s.58-1.8-1.22-1.8H226.85c-10.83,0-7.27-9.73,2.42-9.73" style="fill:#fff"/><path d="M435.58.2C422.91,0,414,0,390.23,0c-30.28,0-32.09,0-43.07.2-4.8.08-8.29,2.06-10.31,5.69l-.46.83h76.29a13.48,13.48,0,0,1-1.27,2.33c0,.07-4.82,7.42-10.34,7.42H351.18a101.33,101.33,0,0,1-5.07,9.23c-3.08,5-8.32,5.46-13,5.46H323.8l-1.22,2.6c-1.75,3.74-.26,8.19,6.49,8.27,15,.17,18.41.2,45.35.2,30.48,0,33.86,0,43.94-.2a11.92,11.92,0,0,0,10.38-5.83c3.38-6.16,4.95-9.35,8.22-16.11,3-6.12,3.58-7.62,5.14-11.14C444,4.72,442.84.3,435.58.2Zm-71,35.26H347.93l7.18-11.61h4.66L354,33.23h12Zm7.39,0h-4.66l7.18-11.61h4.66Zm18,0-4.54-8.22-5.08,8.22h-4.66l7.18-11.61h4.66l4.44,8.39,5.18-8.39h4.66l-7.18,11.61Zm29.9-9.38H408.65l-1.48,2.4H417l-1.39,2.23h-9.78l-1.55,2.51h12.09l-1.39,2.23H398.19l7.18-11.61h15.87Z" style="fill:#fff"/></svg>