<svg id="c711ca2e-8e61-48b7-905b-c8b527ee9415" data-name="Layer 1" xmlns="http://www.w3.org/2000/svg" viewBox="0 0 352.35 34.33"><title>sportage</title><path d="M45.55,0,41.89,5.73H15.57c-1.5,0-2.34.89-2.34,1.79s.68,1.7,2.29,2.1l24.07,6c2,.49,6,1.93,6,7.26,0,4.65-3.66,7.85-7,7.85H0l3.55-6.2H30c2.45,0,2.78-1.37,2.78-2.23s-.29-1.9-2-2.36c-2.32-.6-17.18-4.37-20.92-5.28C7.45,14,2.65,12.21,2.65,7.52,2.65,3.79,5.28,0,12.38,0Z" style="fill:#fff"/><path d="M48.79,3.55H84.95c5.83,0,8.92,2.26,8.92,5.7V16c0,3.21-2.93,6-8.92,6H67.44l-4.39-5.67H81c2.36,0,3.94-1.28,3.94-3.65,0-1.93-1.58-3.43-3.94-3.43H59.88V30.7H48.79Z" style="fill:#fff"/><polygon points="176.04 3.55 180.55 9.25 195.98 9.25 195.98 30.7 207.17 30.7 207.17 9.25 222.57 9.25 226.84 3.55 176.04 3.55" style="fill:#fff"/><path d="M145.27,16H161.4a3.26,3.26,0,0,0,3.23-3.41,3.31,3.31,0,0,0-3.23-3.37H140.86V25c0,2.83-1.9,5.73-7.42,5.73H104c-4.29,0-7-2.41-7-5.73V9.25c0-3,3.67-5.7,8-5.7h60.87c7.24,0,9,2.44,9,6.85v4.16c0,2.6-2,6-6.71,6h-3.83l19.35,13.78H171.19m-64.3-22.49V22.31a2.85,2.85,0,0,0,3,2.66h18A2.91,2.91,0,0,0,131,22.39V11.82A2.86,2.86,0,0,0,128,9.25h-18A2.78,2.78,0,0,0,106.89,11.83Z" style="fill:#fff"/><path d="M216.38,30.7,234.05,2.94h14.31L265.63,30.7l-9.93.13-4.09-6.71h-21l-4.2,6.58M241.25,7.52l-7,10.87H248Z" style="fill:#fff"/><path d="M288.22,14.06l3.08,5.19h9.88v3.14A2.42,2.42,0,0,1,299,25H280.32c-2.2,0-3.26-1.29-3.26-2.58V11.82c0-1.21,1.51-2.57,3.61-2.57h29.15V3.55H275.39c-5.58,0-8.14,3.7-8.14,5.7V25c0,2.23,2.45,5.73,8.18,5.73h25.76c5.92,0,8.65-2.43,8.65-6.2V14.06Z" style="fill:#fff"/><polygon points="313.27 30.7 313.27 3.55 352.35 3.55 347.92 9.25 324.45 9.3 324.43 14.05 347.05 14.05 347.05 19.71 324.43 19.71 324.43 24.97 347.92 24.97 352.35 30.7 313.27 30.7" style="fill:#fff"/></svg>